<svg width="250" height="250" viewBox="0 0 1024 1024"  xmlns="http://www.w3.org/2000/svg">
<path fill-rule="evenodd" clip-rule="evenodd" d="M520.5 318.5C519.502 343.661 519.169 368.995 519.5 394.5C544.339 394.831 569.006 394.498 593.5 393.5C604.134 383.448 616.134 381.281 629.5 387C638.303 379.198 646.803 371.031 655 362.5C648.506 340.975 653.339 322.475 669.5 307C692.437 292.343 713.27 294.843 732 314.5C745.713 335.777 744.213 355.944 727.5 375C714.509 385.466 699.843 388.799 683.5 385C678.468 383.402 673.968 380.902 670 377.5C661.47 386.364 652.637 394.864 643.5 403C648.42 418.659 643.92 430.825 630 439.5C633.74 476.813 620.574 506.48 590.5 528.5C589.217 531.372 589.217 534.205 590.5 537C619.879 555.746 633.379 582.579 631 617.5C630.422 621.721 629.589 625.888 628.5 630C633.6 633.767 638.1 638.267 642 643.5C643.275 645.717 644.275 648.051 645 650.5C645.172 654.871 645.672 659.204 646.5 663.5C653.465 669.13 660.132 675.13 666.5 681.5C682.473 667.309 700.14 664.809 719.5 674C743.515 691.245 748.015 712.745 733 738.5C720.941 752.3 705.774 757.8 687.5 755C669.675 750.509 658.509 739.342 654 721.5C653.439 713.78 653.439 706.114 654 698.5C647.283 692.112 640.283 686.112 633 680.5C621.208 689.568 609.375 689.735 597.5 681C571.835 680.5 546.169 680.333 520.5 680.5C520.5 700.833 520.5 721.167 520.5 741.5C539.006 746.505 551.173 758.172 557 776.5C561.001 802.668 551.167 821.502 527.5 833C502.881 840.682 483.048 834.182 468 813.5C455.008 785.363 461.175 762.53 486.5 745C490.599 742.91 494.933 741.744 499.5 741.5C499.5 721.167 499.5 700.833 499.5 680.5C471.831 680.333 444.165 680.5 416.5 681C404.499 689.352 392.499 689.519 380.5 681.5C374.483 687.351 368.317 693.017 362 698.5C365.494 718.353 359.661 734.853 344.5 748C327.049 757.906 309.715 757.906 292.5 748C272.266 729.739 269.1 708.905 283 685.5C299.441 667.212 318.608 663.712 340.5 675C342.5 677 344.5 679 346.5 681C347.5 681.667 348.5 681.667 349.5 681C355.969 675.532 362.136 669.699 368 663.5C367.826 655.525 369.826 648.191 374 641.5C376.106 638.882 378.606 636.882 381.5 635.5C381.435 635.938 381.601 636.272 382 636.5C382.333 635.833 382.667 635.167 383 634.5C383.667 609.5 383.667 584.5 383 559.5C382.31 558.262 381.81 558.262 381.5 559.5C370.686 556.185 363.686 549.018 360.5 538C336.5 537.333 312.5 537.333 288.5 538C279.112 565.702 259.779 578.369 230.5 576C204.913 568.91 191.913 552.077 191.5 525.5C192.988 499.689 206.322 483.855 231.5 478C261.209 475.846 280.209 489.012 288.5 517.5C313.5 518.833 338.5 518.833 363.5 517.5C367.246 509.958 373.246 505.291 381.5 503.5C382.832 492.52 383.499 481.187 383.5 469.5C383.333 458.167 383.167 446.833 383 435.5C382.617 434.944 382.117 434.611 381.5 434.5C372.808 429.463 368.474 421.796 368.5 411.5C368.764 408.036 369.264 404.703 370 401.5C361.97 393.136 353.637 385.136 345 377.5C340.99 380.921 336.49 383.421 331.5 385C301.635 390.494 282.802 378.66 275 349.5C272.292 325.894 281.792 309.394 303.5 300C334.357 293.507 354.19 305.341 363 335.5C364.416 344.386 363.249 352.886 359.5 361C368.084 369.955 377.084 378.455 386.5 386.5C399.279 381.035 410.279 383.535 419.5 394C446.165 394.5 472.831 394.667 499.5 394.5C499.5 369.167 499.5 343.833 499.5 318.5C479.639 313.807 467.139 301.474 462 281.5C457.505 252.987 468.671 233.487 495.5 223C523.961 217.147 544.128 227.313 556 253.5C562.671 278.157 555.838 297.99 535.5 313C530.81 315.729 525.81 317.563 520.5 318.5Z" fill="#2B2B2B"/>
<path fill-rule="evenodd" clip-rule="evenodd" d="M490.5 237.5C498.802 237.473 503.802 241.473 505.5 249.5C504.764 257.735 500.264 262.069 492 262.5C481.815 259.792 478.815 253.458 483 243.5C485.114 240.879 487.614 238.879 490.5 237.5Z" fill="#1FCDBC"/>
<path fill-rule="evenodd" clip-rule="evenodd" d="M308.5 309.5C312.936 309.21 317.27 309.71 321.5 311C324.576 313.612 325.243 316.779 323.5 320.5C315.782 321.362 309.448 324.862 304.5 331C295.312 332.144 292.478 328.31 296 319.5C299.634 315.296 303.801 311.962 308.5 309.5Z" fill="#1FCDBC"/>
<path fill-rule="evenodd" clip-rule="evenodd" d="M690.5 309.5C694.637 309.146 698.637 309.646 702.5 311C705.349 313.559 706.183 316.726 705 320.5C703.829 321.893 702.329 322.727 700.5 323C697.044 323.18 693.711 323.847 690.5 325C688.605 327.806 686.272 330.14 683.5 332C677.143 333.976 673.81 331.643 673.5 325C674.608 320.879 676.941 317.545 680.5 315C683.767 312.87 687.1 311.037 690.5 309.5Z" fill="#1FCDBC"/>
<path fill-rule="evenodd" clip-rule="evenodd" d="M520.5 318.5C520.5 343.5 520.5 368.5 520.5 393.5C544.833 393.5 569.167 393.5 593.5 393.5C569.006 394.498 544.339 394.831 519.5 394.5C519.169 368.995 519.502 343.661 520.5 318.5Z" fill="#7C8792"/>
<path fill-rule="evenodd" clip-rule="evenodd" d="M539.5 522.5C539.167 522.5 538.833 522.5 538.5 522.5C498.761 522.827 459.094 522.494 419.5 521.5C415.93 513.93 410.597 507.93 403.5 503.5C403.5 482.167 403.5 460.833 403.5 439.5C405.483 439.843 406.817 439.176 407.5 437.5C418.11 433.548 423.777 425.881 424.5 414.5C478.5 414.5 532.5 414.5 586.5 414.5C587.07 424.479 591.404 432.312 599.5 438C602.309 439.741 605.309 440.908 608.5 441.5C612.866 472.429 601.866 496.096 575.5 512.5C564.582 506.592 554.249 507.426 544.5 515C542.192 517.128 540.526 519.628 539.5 522.5Z" fill="#F6F1E9"/>
<path fill-rule="evenodd" clip-rule="evenodd" d="M381.5 434.5C382.117 434.611 382.617 434.944 383 435.5C383.167 446.833 383.333 458.167 383.5 469.5C383.499 481.187 382.832 492.52 381.5 503.5C381.5 480.5 381.5 457.5 381.5 434.5Z" fill="#041522"/>
<path fill-rule="evenodd" clip-rule="evenodd" d="M407.5 437.5C406.817 439.176 405.483 439.843 403.5 439.5C403.5 460.833 403.5 482.167 403.5 503.5C402.503 482.006 402.169 460.34 402.5 438.5C404.216 438.371 405.883 438.038 407.5 437.5Z" fill="#CFDFEB"/>
<path fill-rule="evenodd" clip-rule="evenodd" d="M763.5 477.5C785.042 474.86 802.209 482.194 815 499.5C827.962 524.348 824.462 546.514 804.5 566C776.857 583.189 752.69 579.356 732 554.5C729.092 549.184 726.592 543.684 724.5 538C700.833 537.667 677.167 537.333 653.5 537C646.901 530.924 646.901 524.924 653.5 519C677.164 518.5 700.831 518.333 724.5 518.5C726.598 505.475 732.931 494.975 743.5 487C749.874 482.977 756.54 479.811 763.5 477.5Z" fill="#2B2B2B"/>
<path fill-rule="evenodd" clip-rule="evenodd" d="M218.5 496.5C231.707 495.197 236.874 500.864 234 513.5C229.748 519.588 223.915 521.754 216.5 520C208.034 511.367 208.7 503.534 218.5 496.5Z" fill="#1FCDBC"/>
<path fill-rule="evenodd" clip-rule="evenodd" d="M752.5 495.5C764.326 493.833 769.826 498.833 769 510.5C765.59 517.453 760.09 519.953 752.5 518C746.397 514.96 744.231 510.126 746 503.5C747.305 500.039 749.471 497.372 752.5 495.5Z" fill="#1FCDBC"/>
<path fill-rule="evenodd" clip-rule="evenodd" d="M419.5 521.5C459.094 522.494 498.761 522.827 538.5 522.5C499.004 523.499 459.337 523.832 419.5 523.5C419.5 522.833 419.5 522.167 419.5 521.5Z" fill="#46535B"/>
<path fill-rule="evenodd" clip-rule="evenodd" d="M538.5 522.5C538.833 522.5 539.167 522.5 539.5 522.5C540.738 522.81 540.738 523.31 539.5 524C499.331 524.831 459.331 524.665 419.5 523.5C459.337 523.832 499.004 523.499 538.5 522.5Z" fill="#051927"/>
<path fill-rule="evenodd" clip-rule="evenodd" d="M598.5 571.5C608.892 587.289 612.559 604.623 609.5 623.5C608.686 625.631 608.186 627.964 608 630.5C592.931 635.293 585.764 645.626 586.5 661.5C533.167 661.5 479.833 661.5 426.5 661.5C426.5 659.5 426.5 657.5 426.5 655.5C424.125 641.791 416.125 633.791 402.5 631.5C402.167 607.491 402.5 583.491 403.5 559.5C410.559 556.107 415.559 550.774 418.5 543.5C458.162 542.333 497.829 542.167 537.5 543C546.612 561.789 560.112 565.622 578 554.5C585.756 559.118 592.589 564.784 598.5 571.5Z" fill="#F6F1E9"/>
<path fill-rule="evenodd" clip-rule="evenodd" d="M609.5 623.5C612.559 604.623 608.892 587.289 598.5 571.5C598.81 570.262 599.31 570.262 600 571.5C610.905 588.364 614.238 606.697 610 626.5C609.517 625.552 609.351 624.552 609.5 623.5Z" fill="#18232E"/>
<path fill-rule="evenodd" clip-rule="evenodd" d="M381.5 635.5C381.5 610.167 381.5 584.833 381.5 559.5C381.81 558.262 382.31 558.262 383 559.5C383.667 584.5 383.667 609.5 383 634.5C382.667 635.167 382.333 635.833 382 636.5C381.601 636.272 381.435 635.938 381.5 635.5Z" fill="#0B1A29"/>
<path fill-rule="evenodd" clip-rule="evenodd" d="M426.5 655.5C426.5 657.5 426.5 659.5 426.5 661.5C479.665 662.333 532.998 662.833 586.5 663C532.83 663.833 479.164 663.667 425.5 662.5C424.706 660.009 425.039 657.676 426.5 655.5Z" fill="#011526"/>
<path fill-rule="evenodd" clip-rule="evenodd" d="M310.5 680.5C317.877 679.025 323.21 681.525 326.5 688C325.917 690.915 324.25 692.915 321.5 694C318.044 694.18 314.711 694.847 311.5 696C308.5 699.667 305.5 703.333 302.5 707C296.506 708.183 293.172 705.683 292.5 699.5C295.104 689.898 301.104 683.564 310.5 680.5Z" fill="#1FCDBC"/>
<path fill-rule="evenodd" clip-rule="evenodd" d="M691.5 680.5C697.328 679.497 702.161 681.164 706 685.5C707.379 689.475 706.213 692.309 702.5 694C698.713 694.16 695.046 694.826 691.5 696C688.022 699.299 685.022 702.966 682.5 707C677.404 708.58 674.237 706.746 673 701.5C672.881 694.251 676.048 688.751 682.5 685C685.592 683.454 688.592 681.954 691.5 680.5Z" fill="#1FCDBC"/>
<path fill-rule="evenodd" clip-rule="evenodd" d="M487.5 759.5C502.692 758.843 507.525 765.51 502 779.5C495.597 784.773 489.263 784.773 483 779.5C480.702 775.782 480.035 771.782 481 767.5C483.001 764.669 485.167 762.003 487.5 759.5Z" fill="#1FCDBC"/>
</svg>
