<?xml version="1.0" encoding="UTF-8"?>
<!DOCTYPE svg PUBLIC "-//W3C//DTD SVG 1.1//EN" "http://www.w3.org/Graphics/SVG/1.1/DTD/svg11.dtd">
<svg xmlns="http://www.w3.org/2000/svg" version="1.1" width="1024px" height="1024px" style="shape-rendering:geometricPrecision; text-rendering:geometricPrecision; image-rendering:optimizeQuality; fill-rule:evenodd; clip-rule:evenodd" xmlns:xlink="http://www.w3.org/1999/xlink">
<g><path style="opacity:1" fill="#f6fcfe" d="M -0.5,-0.5 C 340.833,-0.5 682.167,-0.5 1023.5,-0.5C 1023.5,340.833 1023.5,682.167 1023.5,1023.5C 682.167,1023.5 340.833,1023.5 -0.5,1023.5C -0.5,682.167 -0.5,340.833 -0.5,-0.5 Z"/></g>
<g><path style="opacity:1" fill="#162e3f" d="M 520.5,318.5 C 519.502,343.661 519.169,368.995 519.5,394.5C 544.339,394.831 569.006,394.498 593.5,393.5C 604.134,383.448 616.134,381.281 629.5,387C 638.303,379.198 646.803,371.031 655,362.5C 648.506,340.975 653.339,322.475 669.5,307C 692.437,292.343 713.27,294.843 732,314.5C 745.713,335.777 744.213,355.944 727.5,375C 714.509,385.466 699.843,388.799 683.5,385C 678.468,383.402 673.968,380.902 670,377.5C 661.47,386.364 652.637,394.864 643.5,403C 648.42,418.659 643.92,430.825 630,439.5C 633.74,476.813 620.574,506.48 590.5,528.5C 589.217,531.372 589.217,534.205 590.5,537C 619.879,555.746 633.379,582.579 631,617.5C 630.422,621.721 629.589,625.888 628.5,630C 633.6,633.767 638.1,638.267 642,643.5C 643.275,645.717 644.275,648.051 645,650.5C 645.172,654.871 645.672,659.204 646.5,663.5C 653.465,669.13 660.132,675.13 666.5,681.5C 682.473,667.309 700.14,664.809 719.5,674C 743.515,691.245 748.015,712.745 733,738.5C 720.941,752.3 705.774,757.8 687.5,755C 669.675,750.509 658.509,739.342 654,721.5C 653.439,713.78 653.439,706.114 654,698.5C 647.283,692.112 640.283,686.112 633,680.5C 621.208,689.568 609.375,689.735 597.5,681C 571.835,680.5 546.169,680.333 520.5,680.5C 520.5,700.833 520.5,721.167 520.5,741.5C 539.006,746.505 551.173,758.172 557,776.5C 561.001,802.668 551.167,821.502 527.5,833C 502.881,840.682 483.048,834.182 468,813.5C 455.008,785.363 461.175,762.53 486.5,745C 490.599,742.91 494.933,741.744 499.5,741.5C 499.5,721.167 499.5,700.833 499.5,680.5C 471.831,680.333 444.165,680.5 416.5,681C 404.499,689.352 392.499,689.519 380.5,681.5C 374.483,687.351 368.317,693.017 362,698.5C 365.494,718.353 359.661,734.853 344.5,748C 327.049,757.906 309.715,757.906 292.5,748C 272.266,729.739 269.1,708.905 283,685.5C 299.441,667.212 318.608,663.712 340.5,675C 342.5,677 344.5,679 346.5,681C 347.5,681.667 348.5,681.667 349.5,681C 355.969,675.532 362.136,669.699 368,663.5C 367.826,655.525 369.826,648.191 374,641.5C 376.106,638.882 378.606,636.882 381.5,635.5C 381.435,635.938 381.601,636.272 382,636.5C 382.333,635.833 382.667,635.167 383,634.5C 383.667,609.5 383.667,584.5 383,559.5C 382.31,558.262 381.81,558.262 381.5,559.5C 370.686,556.185 363.686,549.018 360.5,538C 336.5,537.333 312.5,537.333 288.5,538C 279.112,565.702 259.779,578.369 230.5,576C 204.913,568.91 191.913,552.077 191.5,525.5C 192.988,499.689 206.322,483.855 231.5,478C 261.209,475.846 280.209,489.012 288.5,517.5C 313.5,518.833 338.5,518.833 363.5,517.5C 367.246,509.958 373.246,505.291 381.5,503.5C 382.832,492.52 383.499,481.187 383.5,469.5C 383.333,458.167 383.167,446.833 383,435.5C 382.617,434.944 382.117,434.611 381.5,434.5C 372.808,429.463 368.474,421.796 368.5,411.5C 368.764,408.036 369.264,404.703 370,401.5C 361.97,393.136 353.637,385.136 345,377.5C 340.99,380.921 336.49,383.421 331.5,385C 301.635,390.494 282.802,378.66 275,349.5C 272.292,325.894 281.792,309.394 303.5,300C 334.357,293.507 354.19,305.341 363,335.5C 364.416,344.386 363.249,352.886 359.5,361C 368.084,369.955 377.084,378.455 386.5,386.5C 399.279,381.035 410.279,383.535 419.5,394C 446.165,394.5 472.831,394.667 499.5,394.5C 499.5,369.167 499.5,343.833 499.5,318.5C 479.639,313.807 467.139,301.474 462,281.5C 457.505,252.987 468.671,233.487 495.5,223C 523.961,217.147 544.128,227.313 556,253.5C 562.671,278.157 555.838,297.99 535.5,313C 530.81,315.729 525.81,317.563 520.5,318.5 Z"/></g>
<g><path style="opacity:1" fill="#f5f9f9" d="M 490.5,237.5 C 498.802,237.473 503.802,241.473 505.5,249.5C 504.764,257.735 500.264,262.069 492,262.5C 481.815,259.792 478.815,253.458 483,243.5C 485.114,240.879 487.614,238.879 490.5,237.5 Z"/></g>
<g><path style="opacity:1" fill="#f8fafb" d="M 308.5,309.5 C 312.936,309.21 317.27,309.71 321.5,311C 324.576,313.612 325.243,316.779 323.5,320.5C 315.782,321.362 309.448,324.862 304.5,331C 295.312,332.144 292.478,328.31 296,319.5C 299.634,315.296 303.801,311.962 308.5,309.5 Z"/></g>
<g><path style="opacity:1" fill="#f6f9fa" d="M 690.5,309.5 C 694.637,309.146 698.637,309.646 702.5,311C 705.349,313.559 706.183,316.726 705,320.5C 703.829,321.893 702.329,322.727 700.5,323C 697.044,323.18 693.711,323.847 690.5,325C 688.605,327.806 686.272,330.14 683.5,332C 677.143,333.976 673.81,331.643 673.5,325C 674.608,320.879 676.941,317.545 680.5,315C 683.767,312.87 687.1,311.037 690.5,309.5 Z"/></g>
<g><path style="opacity:1" fill="#7c8792" d="M 520.5,318.5 C 520.5,343.5 520.5,368.5 520.5,393.5C 544.833,393.5 569.167,393.5 593.5,393.5C 569.006,394.498 544.339,394.831 519.5,394.5C 519.169,368.995 519.502,343.661 520.5,318.5 Z"/></g>
<g><path style="opacity:1" fill="#f6fdfe" d="M 539.5,522.5 C 539.167,522.5 538.833,522.5 538.5,522.5C 498.761,522.827 459.094,522.494 419.5,521.5C 415.93,513.93 410.597,507.93 403.5,503.5C 403.5,482.167 403.5,460.833 403.5,439.5C 405.483,439.843 406.817,439.176 407.5,437.5C 418.11,433.548 423.777,425.881 424.5,414.5C 478.5,414.5 532.5,414.5 586.5,414.5C 587.07,424.479 591.404,432.312 599.5,438C 602.309,439.741 605.309,440.908 608.5,441.5C 612.866,472.429 601.866,496.096 575.5,512.5C 564.582,506.592 554.249,507.426 544.5,515C 542.192,517.128 540.526,519.628 539.5,522.5 Z"/></g>
<g><path style="opacity:1" fill="#041522" d="M 381.5,434.5 C 382.117,434.611 382.617,434.944 383,435.5C 383.167,446.833 383.333,458.167 383.5,469.5C 383.499,481.187 382.832,492.52 381.5,503.5C 381.5,480.5 381.5,457.5 381.5,434.5 Z"/></g>
<g><path style="opacity:1" fill="#cfdfeb" d="M 407.5,437.5 C 406.817,439.176 405.483,439.843 403.5,439.5C 403.5,460.833 403.5,482.167 403.5,503.5C 402.503,482.006 402.169,460.34 402.5,438.5C 404.216,438.371 405.883,438.038 407.5,437.5 Z"/></g>
<g><path style="opacity:1" fill="#152e3f" d="M 763.5,477.5 C 785.042,474.86 802.209,482.194 815,499.5C 827.962,524.348 824.462,546.514 804.5,566C 776.857,583.189 752.69,579.356 732,554.5C 729.092,549.184 726.592,543.684 724.5,538C 700.833,537.667 677.167,537.333 653.5,537C 646.901,530.924 646.901,524.924 653.5,519C 677.164,518.5 700.831,518.333 724.5,518.5C 726.598,505.475 732.931,494.975 743.5,487C 749.874,482.977 756.54,479.811 763.5,477.5 Z"/></g>
<g><path style="opacity:1" fill="#f6fafb" d="M 218.5,496.5 C 231.707,495.197 236.874,500.864 234,513.5C 229.748,519.588 223.915,521.754 216.5,520C 208.034,511.367 208.7,503.534 218.5,496.5 Z"/></g>
<g><path style="opacity:1" fill="#f6fafa" d="M 752.5,495.5 C 764.326,493.833 769.826,498.833 769,510.5C 765.59,517.453 760.09,519.953 752.5,518C 746.397,514.96 744.231,510.126 746,503.5C 747.305,500.039 749.471,497.372 752.5,495.5 Z"/></g>
<g><path style="opacity:1" fill="#46535b" d="M 419.5,521.5 C 459.094,522.494 498.761,522.827 538.5,522.5C 499.004,523.499 459.337,523.832 419.5,523.5C 419.5,522.833 419.5,522.167 419.5,521.5 Z"/></g>
<g><path style="opacity:1" fill="#051927" d="M 538.5,522.5 C 538.833,522.5 539.167,522.5 539.5,522.5C 540.738,522.81 540.738,523.31 539.5,524C 499.331,524.831 459.331,524.665 419.5,523.5C 459.337,523.832 499.004,523.499 538.5,522.5 Z"/></g>
<g><path style="opacity:1" fill="#f6fcfe" d="M 598.5,571.5 C 608.892,587.289 612.559,604.623 609.5,623.5C 608.686,625.631 608.186,627.964 608,630.5C 592.931,635.293 585.764,645.626 586.5,661.5C 533.167,661.5 479.833,661.5 426.5,661.5C 426.5,659.5 426.5,657.5 426.5,655.5C 424.125,641.791 416.125,633.791 402.5,631.5C 402.167,607.491 402.5,583.491 403.5,559.5C 410.559,556.107 415.559,550.774 418.5,543.5C 458.162,542.333 497.829,542.167 537.5,543C 546.612,561.789 560.112,565.622 578,554.5C 585.756,559.118 592.589,564.784 598.5,571.5 Z"/></g>
<g><path style="opacity:1" fill="#18232e" d="M 609.5,623.5 C 612.559,604.623 608.892,587.289 598.5,571.5C 598.81,570.262 599.31,570.262 600,571.5C 610.905,588.364 614.238,606.697 610,626.5C 609.517,625.552 609.351,624.552 609.5,623.5 Z"/></g>
<g><path style="opacity:1" fill="#0b1a29" d="M 381.5,635.5 C 381.5,610.167 381.5,584.833 381.5,559.5C 381.81,558.262 382.31,558.262 383,559.5C 383.667,584.5 383.667,609.5 383,634.5C 382.667,635.167 382.333,635.833 382,636.5C 381.601,636.272 381.435,635.938 381.5,635.5 Z"/></g>
<g><path style="opacity:1" fill="#011526" d="M 426.5,655.5 C 426.5,657.5 426.5,659.5 426.5,661.5C 479.665,662.333 532.998,662.833 586.5,663C 532.83,663.833 479.164,663.667 425.5,662.5C 424.706,660.009 425.039,657.676 426.5,655.5 Z"/></g>
<g><path style="opacity:1" fill="#f3f6f7" d="M 310.5,680.5 C 317.877,679.025 323.21,681.525 326.5,688C 325.917,690.915 324.25,692.915 321.5,694C 318.044,694.18 314.711,694.847 311.5,696C 308.5,699.667 305.5,703.333 302.5,707C 296.506,708.183 293.172,705.683 292.5,699.5C 295.104,689.898 301.104,683.564 310.5,680.5 Z"/></g>
<g><path style="opacity:1" fill="#f2f5f7" d="M 691.5,680.5 C 697.328,679.497 702.161,681.164 706,685.5C 707.379,689.475 706.213,692.309 702.5,694C 698.713,694.16 695.046,694.826 691.5,696C 688.022,699.299 685.022,702.966 682.5,707C 677.404,708.58 674.237,706.746 673,701.5C 672.881,694.251 676.048,688.751 682.5,685C 685.592,683.454 688.592,681.954 691.5,680.5 Z"/></g>
<g><path style="opacity:1" fill="#f7fafb" d="M 487.5,759.5 C 502.692,758.843 507.525,765.51 502,779.5C 495.597,784.773 489.263,784.773 483,779.5C 480.702,775.782 480.035,771.782 481,767.5C 483.001,764.669 485.167,762.003 487.5,759.5 Z"/></g>
</svg>
