<svg width="974" height="974" viewBox="0 0 974 974" fill="none" xmlns="http://www.w3.org/2000/svg">
<path fill-rule="evenodd" clip-rule="evenodd" d="M495.085 302.948C494.136 326.881 493.819 350.978 494.134 375.237C517.76 375.552 541.222 375.235 564.52 374.286C574.635 364.725 586.049 362.664 598.763 368.104C607.136 360.682 615.221 352.914 623.018 344.8C616.841 324.326 621.438 306.729 636.81 292.01C658.627 278.068 678.442 280.446 696.258 299.144C709.301 319.382 707.874 338.564 691.978 356.689C679.621 366.644 665.671 369.815 650.126 366.201C645.34 364.681 641.059 362.303 637.285 359.067C629.172 367.499 620.77 375.584 612.079 383.322C616.759 398.217 612.479 409.789 599.238 418.04C602.796 453.531 590.273 481.75 561.667 502.694C560.447 505.426 560.447 508.121 561.667 510.779C589.611 528.61 602.452 554.133 600.189 587.349C599.64 591.364 598.847 595.327 597.811 599.238C602.662 602.821 606.943 607.102 610.652 612.079C611.865 614.188 612.816 616.408 613.506 618.737C613.669 622.895 614.145 627.016 614.933 631.103C621.558 636.458 627.899 642.165 633.956 648.224C649.149 634.726 665.953 632.348 684.368 641.09C707.211 657.493 711.491 677.943 697.209 702.44C685.739 715.567 671.312 720.798 653.931 718.135C636.976 713.863 626.355 703.241 622.066 686.271C621.533 678.927 621.533 671.636 622.066 664.394C615.677 658.317 609.019 652.61 602.092 647.272C590.876 655.898 579.62 656.057 568.325 647.748C543.913 647.272 519.501 647.114 495.085 647.272C495.085 666.613 495.085 685.954 495.085 705.294C512.687 710.055 524.26 721.152 529.803 738.585C533.608 763.475 524.255 781.39 501.743 792.326C478.326 799.633 459.462 793.45 445.148 773.778C432.791 747.015 438.657 725.297 462.745 708.623C466.644 706.635 470.766 705.526 475.11 705.294C475.11 685.954 475.11 666.613 475.11 647.272C448.792 647.114 422.477 647.272 396.163 647.748C384.748 655.692 373.334 655.851 361.921 648.224C356.198 653.789 350.333 659.178 344.324 664.394C347.648 683.277 342.099 698.971 327.679 711.477C311.08 720.899 294.592 720.899 278.218 711.477C258.972 694.107 255.96 674.291 269.182 652.028C284.82 634.633 303.051 631.304 323.874 642.041C325.776 643.943 327.679 645.846 329.581 647.748C330.532 648.383 331.483 648.383 332.435 647.748C338.588 642.547 344.454 636.999 350.031 631.103C349.866 623.517 351.768 616.541 355.738 610.177C357.741 607.687 360.119 605.784 362.872 604.47C362.81 604.886 362.968 605.204 363.348 605.421C363.664 604.786 363.982 604.153 364.299 603.519C364.933 579.739 364.933 555.96 364.299 532.181C363.643 531.003 363.167 531.003 362.872 532.181C352.586 529.028 345.928 522.211 342.897 511.73C320.069 511.096 297.241 511.096 274.413 511.73C265.483 538.08 247.094 550.128 219.245 547.875C194.907 541.131 182.542 525.12 182.149 499.841C183.565 475.29 196.248 460.229 220.196 454.66C248.455 452.611 266.527 465.134 274.413 492.231C298.192 493.499 321.972 493.499 345.751 492.231C349.314 485.058 355.021 480.619 362.872 478.915C364.139 468.471 364.773 457.692 364.774 446.575C364.616 435.796 364.458 425.015 364.299 414.235C363.935 413.707 363.459 413.39 362.872 413.284C354.604 408.493 350.482 401.201 350.507 391.407C350.758 388.112 351.234 384.942 351.934 381.896C344.296 373.94 336.37 366.331 328.154 359.067C324.34 362.321 320.06 364.699 315.313 366.201C286.907 371.427 268.993 360.171 261.572 332.435C258.996 309.981 268.033 294.287 288.681 285.352C318.031 279.176 336.896 290.432 345.275 319.118C346.622 327.57 345.512 335.655 341.946 343.373C350.111 351.891 358.672 359.976 367.628 367.628C379.783 362.43 390.246 364.808 399.017 374.762C424.38 375.237 449.744 375.396 475.11 375.237C475.11 351.141 475.11 327.044 475.11 302.948C456.219 298.484 444.329 286.754 439.441 267.755C435.166 240.634 445.787 222.086 471.306 212.111C498.377 206.544 517.559 216.214 528.852 241.122C535.197 264.575 528.697 283.44 509.353 297.717C504.892 300.313 500.136 302.057 495.085 302.948Z" fill="#F6F1E9"/>
<path fill-rule="evenodd" clip-rule="evenodd" d="M466.55 225.903C474.446 225.878 479.202 229.682 480.817 237.317C480.117 245.15 475.837 249.273 467.977 249.683C458.289 247.107 455.435 241.082 459.416 231.61C461.427 229.117 463.805 227.215 466.55 225.903Z" fill="#1FCDBC"/>
<path fill-rule="evenodd" clip-rule="evenodd" d="M293.437 294.388C297.656 294.112 301.778 294.587 305.802 295.814C308.728 298.299 309.362 301.311 307.704 304.851C300.363 305.671 294.338 309 289.632 314.838C280.892 315.926 278.197 312.279 281.547 303.899C285.003 299.901 288.967 296.729 293.437 294.388Z" fill="#1FCDBC"/>
<path fill-rule="evenodd" clip-rule="evenodd" d="M656.784 294.388C660.719 294.051 664.524 294.527 668.198 295.814C670.908 298.249 671.701 301.261 670.576 304.851C669.462 306.176 668.036 306.969 666.296 307.229C663.009 307.4 659.838 308.034 656.784 309.131C654.982 311.8 652.763 314.02 650.126 315.789C644.079 317.669 640.909 315.45 640.614 309.131C641.668 305.211 643.887 302.04 647.272 299.619C650.38 297.593 653.55 295.85 656.784 294.388Z" fill="#1FCDBC"/>
<path fill-rule="evenodd" clip-rule="evenodd" d="M495.085 302.948C495.085 326.728 495.085 350.507 495.085 374.286C518.23 374.286 541.376 374.286 564.521 374.286C541.223 375.235 517.76 375.552 494.134 375.237C493.819 350.978 494.136 326.881 495.085 302.948Z" fill="#7C8792"/>
<path fill-rule="evenodd" clip-rule="evenodd" d="M525.359 498.727C525.043 498.727 524.725 498.727 524.408 498.727C486.61 499.038 448.879 498.721 411.219 497.775C407.823 490.575 402.75 484.868 396 480.654C396 460.363 396 440.071 396 419.779C397.886 420.106 399.155 419.471 399.805 417.877C409.897 414.118 415.287 406.825 415.975 396C467.338 396 518.701 396 570.064 396C570.607 405.492 574.729 412.942 582.43 418.353C585.102 420.009 587.955 421.119 590.99 421.682C595.143 451.1 584.68 473.612 559.602 489.215C549.217 483.595 539.388 484.389 530.115 491.593C527.92 493.617 526.335 495.995 525.359 498.727Z" fill="#2B2B2B"/>
<path fill-rule="evenodd" clip-rule="evenodd" d="M362.872 413.284C363.459 413.39 363.935 413.707 364.299 414.235C364.458 425.015 364.616 435.796 364.774 446.575C364.773 457.692 364.139 468.471 362.872 478.915C362.872 457.038 362.872 435.161 362.872 413.284Z" fill="#F6F1E9"/>
<path fill-rule="evenodd" clip-rule="evenodd" d="M387.603 416.138C386.953 417.732 385.684 418.366 383.798 418.04C383.798 438.331 383.798 458.624 383.798 478.915C382.85 458.471 382.532 437.862 382.847 417.089C384.479 416.966 386.065 416.649 387.603 416.138Z" fill="#CFDFEB"/>
<path fill-rule="evenodd" clip-rule="evenodd" d="M726.22 454.185C746.71 451.673 763.039 458.649 775.205 475.11C787.534 498.745 784.205 519.829 765.218 538.363C738.924 554.713 715.938 551.067 696.258 527.425C693.492 522.368 691.114 517.137 689.124 511.73C666.613 511.414 644.102 511.096 621.591 510.779C615.314 505 615.314 499.293 621.591 493.658C644.099 493.183 666.611 493.024 689.124 493.183C691.12 480.794 697.143 470.806 707.196 463.221C713.259 459.394 719.6 456.383 726.22 454.185Z" fill="#F6F1E9"/>
<path fill-rule="evenodd" clip-rule="evenodd" d="M207.831 472.257C220.393 471.017 225.308 476.408 222.574 488.427C218.53 494.217 212.982 496.278 205.929 494.609C197.876 486.398 198.51 478.947 207.831 472.257Z" fill="#1FCDBC"/>
<path fill-rule="evenodd" clip-rule="evenodd" d="M715.757 471.306C727.005 469.72 732.237 474.476 731.451 485.573C728.208 492.187 722.976 494.565 715.757 492.707C709.952 489.815 707.892 485.217 709.574 478.915C710.815 475.623 712.876 473.086 715.757 471.306Z" fill="#1FCDBC"/>
<path fill-rule="evenodd" clip-rule="evenodd" d="M399.017 496.036C436.677 496.982 474.407 497.298 512.206 496.987C474.639 497.938 436.908 498.254 399.017 497.938C399.017 497.304 399.017 496.671 399.017 496.036Z" fill="#46535B"/>
<path fill-rule="evenodd" clip-rule="evenodd" d="M512.206 496.987C512.523 496.987 512.84 496.987 513.157 496.987C514.335 497.282 514.335 497.758 513.157 498.414C474.95 499.204 436.903 499.047 399.017 497.938C436.908 498.254 474.639 497.938 512.206 496.987Z" fill="#F6F1E9"/>
<path fill-rule="evenodd" clip-rule="evenodd" d="M569.276 543.595C579.161 558.613 582.649 575.1 579.739 593.056C578.965 595.083 578.489 597.302 578.313 599.714C563.979 604.273 557.162 614.101 557.862 629.2C507.133 629.2 456.404 629.2 405.675 629.2C405.675 627.298 405.675 625.396 405.675 623.493C403.416 610.454 395.806 602.844 382.847 600.665C382.53 577.828 382.847 555 383.798 532.181C390.512 528.953 395.268 523.881 398.065 516.962C435.791 515.852 473.521 515.694 511.255 516.486C519.922 534.358 532.763 538.004 549.777 527.425C557.155 531.817 563.654 537.207 569.276 543.595Z" fill="#2B2B2B"/>
<path fill-rule="evenodd" clip-rule="evenodd" d="M579.739 593.056C582.649 575.1 579.161 558.613 569.276 543.595C569.571 542.417 570.047 542.417 570.703 543.595C581.076 559.635 584.246 577.073 580.215 595.909C579.755 595.007 579.598 594.056 579.739 593.056Z" fill="#18232E"/>
<path fill-rule="evenodd" clip-rule="evenodd" d="M362.872 604.47C362.872 580.374 362.872 556.277 362.872 532.181C363.167 531.003 363.643 531.003 364.299 532.181C364.933 555.96 364.933 579.739 364.299 603.519C363.982 604.153 363.664 604.786 363.348 605.421C362.968 605.204 362.81 604.886 362.872 604.47Z" fill="#0B1A29"/>
<path fill-rule="evenodd" clip-rule="evenodd" d="M405.675 623.493C405.675 625.396 405.675 627.298 405.675 629.2C456.244 629.993 506.973 630.468 557.862 630.627C506.813 631.419 455.767 631.261 404.724 630.151C403.968 627.782 404.285 625.563 405.675 623.493Z" fill="#F6F1E9"/>
<path fill-rule="evenodd" clip-rule="evenodd" d="M295.339 647.272C302.356 645.869 307.428 648.247 310.558 654.406C310.003 657.179 308.417 659.081 305.802 660.113C302.515 660.284 299.344 660.919 296.29 662.016C293.437 665.504 290.583 668.991 287.729 672.478C282.028 673.604 278.857 671.226 278.218 665.345C280.695 656.212 286.402 650.187 295.339 647.272Z" fill="#1FCDBC"/>
<path fill-rule="evenodd" clip-rule="evenodd" d="M657.735 647.272C663.279 646.318 667.876 647.904 671.527 652.028C672.839 655.809 671.73 658.505 668.198 660.113C664.596 660.265 661.108 660.899 657.735 662.016C654.427 665.154 651.574 668.641 649.175 672.479C644.328 673.981 641.315 672.237 640.139 667.247C640.026 660.352 643.038 655.121 649.175 651.553C652.116 650.082 654.969 648.655 657.735 647.272Z" fill="#1FCDBC"/>
<path fill-rule="evenodd" clip-rule="evenodd" d="M463.696 722.415C478.146 721.79 482.744 728.132 477.488 741.439C471.398 746.454 465.373 746.454 459.416 741.439C457.23 737.902 456.596 734.097 457.514 730.024C459.417 727.332 461.477 724.796 463.696 722.415Z" fill="#1FCDBC"/>
</svg>
